<svg width="66" height="66" viewBox="0 0 66 66" fill="none" xmlns="http://www.w3.org/2000/svg">
<g filter="url(#filter0_d)">
<circle cx="33" cy="33" r="14" stroke="white" stroke-width="2"/>
</g>
<g filter="url(#filter1_d)">
<path d="M35.44 26.14H37.38V40H35.44V33.6H28.66V40H26.72V26.14H28.66V31.92H35.44V26.14ZM40.9016 38.92C40.9016 39.28 40.7816 39.5933 40.5416 39.86C40.3016 40.1267 39.9749 40.26 39.5616 40.26C39.1482 40.26 38.8216 40.1267 38.5816 39.86C38.3416 39.5933 38.2216 39.28 38.2216 38.92C38.2216 38.56 38.3416 38.2467 38.5816 37.98C38.8216 37.7133 39.1482 37.58 39.5616 37.58C39.9749 37.58 40.3016 37.7133 40.5416 37.98C40.7816 38.2467 40.9016 38.56 40.9016 38.92Z" fill="white"/>
</g>
<defs>
<filter id="filter0_d" x="2.38419e-07" y="2.38419e-07" width="66" height="66" filterUnits="userSpaceOnUse" color-interpolation-filters="sRGB">
<feFlood flood-opacity="0" result="BackgroundImageFix"/>
<feColorMatrix in="SourceAlpha" type="matrix" values="0 0 0 0 0 0 0 0 0 0 0 0 0 0 0 0 0 0 127 0"/>
<feMorphology radius="4" operator="dilate" in="SourceAlpha" result="effect1_dropShadow"/>
<feOffset/>
<feGaussianBlur stdDeviation="7"/>
<feColorMatrix type="matrix" values="0 0 0 0 0 0 0 0 0 0 0 0 0 0 0 0 0 0 0.3 0"/>
<feBlend mode="normal" in2="BackgroundImageFix" result="effect1_dropShadow"/>
<feBlend mode="normal" in="SourceGraphic" in2="effect1_dropShadow" result="shape"/>
</filter>
<filter id="filter1_d" x="12.72" y="12.14" width="42.1816" height="42.12" filterUnits="userSpaceOnUse" color-interpolation-filters="sRGB">
<feFlood flood-opacity="0" result="BackgroundImageFix"/>
<feColorMatrix in="SourceAlpha" type="matrix" values="0 0 0 0 0 0 0 0 0 0 0 0 0 0 0 0 0 0 127 0"/>
<feOffset/>
<feGaussianBlur stdDeviation="7"/>
<feColorMatrix type="matrix" values="0 0 0 0 0 0 0 0 0 0 0 0 0 0 0 0 0 0 0.3 0"/>
<feBlend mode="normal" in2="BackgroundImageFix" result="effect1_dropShadow"/>
<feBlend mode="normal" in="SourceGraphic" in2="effect1_dropShadow" result="shape"/>
</filter>
</defs>
</svg>
