<svg width="30" height="30" viewBox="0 0 30 30" fill="none" xmlns="http://www.w3.org/2000/svg">
<circle cx="15" cy="15" r="14" stroke="white" stroke-width="2"/>
<path d="M17.44 8.14H19.38V22H17.44V15.6H10.66V22H8.72V8.14H10.66V13.92H17.44V8.14ZM22.9016 20.92C22.9016 21.28 22.7816 21.5933 22.5416 21.86C22.3016 22.1267 21.9749 22.26 21.5616 22.26C21.1482 22.26 20.8216 22.1267 20.5816 21.86C20.3416 21.5933 20.2216 21.28 20.2216 20.92C20.2216 20.56 20.3416 20.2467 20.5816 19.98C20.8216 19.7133 21.1482 19.58 21.5616 19.58C21.9749 19.58 22.3016 19.7133 22.5416 19.98C22.7816 20.2467 22.9016 20.56 22.9016 20.92Z" fill="white"/>
</svg>
