<svg width="20" height="14" viewBox="0 0 20 14" fill="none" xmlns="http://www.w3.org/2000/svg">
<rect x="1" y="1" width="18" height="12" stroke="white" stroke-linecap="round" stroke-linejoin="round"/>
<path d="M1.33965 1.5L9.9999 9L18.6602 1.5" stroke="white" stroke-linecap="round" stroke-linejoin="round"/>
<path d="M0.737951 10.5742C0.502772 10.7189 0.429445 11.0269 0.574171 11.262C0.718896 11.4972 1.02687 11.5706 1.26205 11.4258L0.737951 10.5742ZM7.5 7L7.81235 6.60957L7.5376 6.38977L7.23795 6.57417L7.5 7ZM10 9L9.68765 9.39043L10 9.64031L10.3123 9.39043L10 9ZM12.5 7L12.762 6.57417L12.4624 6.38977L12.1877 6.60957L12.5 7ZM18.738 11.4258C18.9731 11.5706 19.2811 11.4972 19.4258 11.262C19.5706 11.0269 19.4972 10.7189 19.262 10.5742L18.738 11.4258ZM1.26205 11.4258L7.76205 7.42583L7.23795 6.57417L0.737951 10.5742L1.26205 11.4258ZM7.18765 7.39043L9.68765 9.39043L10.3123 8.60957L7.81235 6.60957L7.18765 7.39043ZM10.3123 9.39043L12.8123 7.39043L12.1877 6.60957L9.68765 8.60957L10.3123 9.39043ZM12.238 7.42583L18.738 11.4258L19.262 10.5742L12.762 6.57417L12.238 7.42583Z" fill="white"/>
</svg>
